<?xml version="1.0" encoding="utf-8"?>
<!-- Generator: Adobe Illustrator 24.1.0, SVG Export Plug-In . SVG Version: 6.00 Build 0)  -->
<svg version="1.1" id="Layer_1" xmlns="http://www.w3.org/2000/svg" xmlns:xlink="http://www.w3.org/1999/xlink" x="0px" y="0px"
	 viewBox="0 0 658 138.6" style="enable-background:new 0 0 658 138.6;" xml:space="preserve">
<style type="text/css">
	.st0{display:none;}
	.st1{display:inline;fill:#FFFFFF;}
	.st2{fill:#FFFFFF;}
</style>
<g id="Layer_1_1_" class="st0">
	<path class="st1" d="M40,28.6c-13.1,0-22.9,3.5-29.3,10.4C4.2,45.9,1,56.6,1,71.2c0,14.5,3.2,25.3,9.7,32.2
		c6.4,6.9,16.2,10.4,29.3,10.4c10.8,0,19.5-2.6,26.1-7.7s9.9-12.8,9.9-23H55.1c0,4.5-1.4,8-4.1,10.5c-2.7,2.5-6.3,3.7-10.8,3.7
		c-6.3,0-10.8-1.7-13.5-5.2s-4.1-8.8-4.3-16H76v-5C76,56.7,73,46,67,39C61.1,32.1,52,28.6,40,28.6z M22.8,62c0.6-5.7,2.3-9.9,5-12.7
		s6.8-4.2,12.1-4.2C49.3,45.1,54,50.7,54,62H22.8z M135.4,28.6c-5.3,0-10.1,1.1-14.4,3.2s-7.8,5.2-10.4,9.4h-1.1l-1.4-10.7h-18
		v108.1h21.2v-36.2h0.9c2.4,3.6,5.6,6.4,9.8,8.3c4.2,2,9,2.9,14.5,2.9c9.5,0,17.1-3.6,22.8-10.7s8.6-17.7,8.6-31.7
		c0-14.3-2.8-25-8.5-32.1C153.7,32.1,145.7,28.6,135.4,28.6z M146.1,72.5c0,7.6-1.3,13.3-4,17.1c-2.7,3.8-7.2,5.6-13.5,5.6
		c-11.6,0-17.3-7.7-17.3-23.1v-2.5c0-15.2,5.8-22.7,17.3-22.7c6.3,0,10.8,1.9,13.5,5.6c2.7,3.8,4,9.5,4,17.1V72.5z M182.3,0h21.2
		v19.2h-21.2V0z M182.3,30.5h21.2v81.4h-21.2V30.5z M244.6,30.5h14.1v17.3h-14.1v41.9c0,4.4,2.2,6.7,6.7,6.7h7.4v14.8
		c-1.8,0.6-3.9,1.2-6.6,1.7c-2.6,0.5-5.1,0.8-7.3,0.8c-7.6,0-13.1-2.1-16.4-6.2c-3.3-4.1-5-9.3-5-15.6V47.8h-9.7V30.5h10.2l3.6-22.9
		h17.2L244.6,30.5L244.6,30.5z M308.4,28.6c-13.9,0-24.3,3.5-31.1,10.4c-6.8,6.9-10.2,17.6-10.2,32.2c0,14.5,3.4,25.3,10.2,32.2
		c6.8,6.9,17.2,10.4,31.1,10.4s24.3-3.5,31.2-10.4c6.9-6.9,10.3-17.6,10.3-32.2c0-14.5-3.4-25.3-10.3-32.2S322.3,28.6,308.4,28.6z
		 M328,72.4c0,8-1.5,14.1-4.6,18c-3.1,4-8.1,6-15,6s-11.9-2-14.9-6s-4.6-10-4.6-18v-2.5c0-8,1.5-14.1,4.6-18c3-4,8-6,14.9-6
		s11.9,2,15,6s4.6,10,4.6,18V72.4z M471.9,35.4c4.6,4.5,6.9,11.8,6.9,21.8v54.6h-21.2V61.7c0-9.6-4-14.4-11.9-14.4
		c-4.1,0-7.5,1.7-10.2,5c-2.7,3.4-4,7.5-4,12.5v47h-21.2V61.7c0-9.6-4-14.4-11.9-14.4c-4.1,0-7.6,1.7-10.3,5
		c-2.7,3.4-4.1,7.5-4.1,12.5v47h-21.2V30.5h18.1l1.5,10.7h1.1c6-8.4,13.7-12.5,23.2-12.5c10.3,0,17.4,4.2,21.3,12.5h1.2
		c6.2-8.4,14.2-12.5,24.1-12.5C461.2,28.6,467.3,30.9,471.9,35.4z M531.6,28.6c-13.1,0-22.9,3.5-29.3,10.4s-9.7,17.6-9.7,32.2
		c0,14.5,3.2,25.3,9.7,32.2c6.4,6.9,16.2,10.4,29.3,10.4c10.8,0,19.5-2.6,26.1-7.7s9.9-12.8,9.9-23h-20.9c0,4.5-1.4,8-4.1,10.5
		s-6.3,3.7-10.8,3.7c-6.3,0-10.8-1.7-13.5-5.2s-4.1-8.8-4.3-16h53.5v-5c0-14.4-3-25.1-9-32.1C552.6,32.1,543.6,28.6,531.6,28.6z
		 M514.4,62c0.6-5.7,2.3-9.9,5-12.7s6.8-4.2,12.1-4.2c9.4,0,14.1,5.6,14.1,16.9H514.4z M599,90.6v21.2h-21.3V90.6H599z"/>
</g>
<g>
	<g id="Layer_2_1_">
		<path class="st2" d="M245.1,31.8L190.1,0l-60,34.7L70.3,0l-55,31.8l-5,2.9v6.7V104l60,34.7l59.9-34.7l59.9,34.6l60-34.7V41.4v-6.7
			L245.1,31.8z M80.4,69.2l49.8-28.8L180,69.3L130.2,98L80.4,69.2z M65.3,124L20.4,98.2L20.3,47l45,25.3V124z M25.3,37.5l45-26
			l45.1,26l-45,25.9v0.1L25.3,37.5z M75.3,124l0.3-46l39.2,23.2L75.3,124z M184.8,78l0.2,45.9l-39.4-22.7L184.8,78z M190,63.5
			L190,63.5l-45-26l45-26l44.9,26L190,63.5z M239.9,98.1L195,123.8V72.3L240,47L239.9,98.1z"/>
	</g>
	<g>
		<path class="st2" d="M292.6,98.6c-2.2,0-4.2-0.3-6-0.9c-1.8-0.6-3.2-1.6-4.2-2.7c-1.1-1.2-2-2.6-2.7-4.2c-0.7-1.7-1.2-3.6-1.4-5.5
			c-0.2-1.9-0.4-4.1-0.4-6.5V63.3c0-2.5,0.1-4.6,0.4-6.5c0.2-1.9,0.8-3.8,1.4-5.5c0.7-1.7,1.6-3.1,2.7-4.2c1.1-1.2,2.5-2,4.2-2.6
			c1.8-0.6,3.8-0.9,6-0.9c2.5,0,4.7,0.3,6.5,1.1c1.8,0.7,3.3,1.9,4.4,3.3c1.1,1.4,1.9,3.1,2.5,5.1c0.6,1.9,0.8,4.1,0.9,6.7
			c0,0.3,0,0.9,0,1.8h-7.7v-1.8c0-1.1-0.1-2-0.1-2.7c-0.1-0.7-0.1-1.6-0.3-2.3c-0.1-0.8-0.3-1.6-0.7-2c-0.3-0.6-0.7-1.1-1.2-1.6
			c-0.4-0.4-1.1-0.8-1.8-0.9c-0.7-0.2-1.6-0.3-2.5-0.3c-1.3,0-2.3,0.2-3.2,0.6c-0.9,0.3-1.6,0.9-2.1,1.6c-0.4,0.6-0.9,1.6-1.2,2.6
			c-0.2,1.1-0.4,2.1-0.4,3.1c-0.1,1.1-0.1,2.2-0.1,3.8v19.3c0,1.3,0,2.5,0.1,3.6c0.1,1.1,0.3,2.1,0.6,3.1c0.3,1.1,0.7,1.9,1.3,2.6
			c0.4,0.7,1.2,1.3,2,1.7c0.8,0.4,1.9,0.7,2.9,0.7c1.2,0,2.1-0.2,2.9-0.7c0.8-0.4,1.4-1.1,1.9-1.7c0.4-0.7,0.8-1.6,1.1-2.6
			s0.4-2.1,0.4-3.1c0.1-1.1,0.1-2.1,0.1-3.6v-2h7.7v1.9c0,2.8-0.2,5.2-0.7,7.4c-0.4,2.1-1.3,4-2.3,5.6c-1.1,1.7-2.6,2.8-4.5,3.7
			C297.6,98.2,295.3,98.6,292.6,98.6z"/>
		<path class="st2" d="M312.2,98.1V43.9h9.7c5.8,0,10,1.1,13.1,3.3c2.9,2.2,4.4,5.9,4.4,11.2c0,3.2-0.6,5.9-1.8,8
			c-1.2,2.1-2.8,3.7-5.1,4.5l8.7,27.1h-7.8l-7.8-25.2h-5.8V98h-7.7L312.2,98.1L312.2,98.1z M319.9,67.1h1.9c3.2,0,5.7-0.7,7.3-2
			c1.7-1.3,2.3-3.6,2.3-6.6s-0.8-5.4-2.3-6.6c-1.7-1.3-4-2-7.3-2h-1.9V67.1z"/>
		<path class="st2" d="M346.1,98.1V43.9h7.7v54.3C353.8,98.1,346.1,98.1,346.1,98.1z"/>
		<path class="st2" d="M376.2,98.6c-4.8,0-8.6-1.4-11.2-4.2c-2.6-2.8-4-6.7-4.2-11.7l7.7-1.9c0.3,7.7,2.9,11.6,7.7,11.6
			c3.9,0,5.8-1.9,5.8-5.8c0-1.2-0.1-2.2-0.4-3.2c-0.3-0.9-0.8-1.9-1.4-2.7c-0.6-0.8-1.2-1.4-1.8-2c-0.4-0.4-1.2-1.1-2.1-1.8
			l-9.7-7.7c-1.8-1.4-3.2-3.2-4.2-5.4c-1.1-2.1-1.6-4.6-1.6-7.4c0-4,1.2-7.3,3.7-9.5c2.5-2.3,5.8-3.6,9.8-3.6
			c4.4,0,7.9,1.1,10.5,3.2c2.6,2.1,4.1,5.2,4.7,9.2c0.1,0.4,0.1,1.1,0.2,1.8l-7.7,1.9c0-0.3-0.1-0.8-0.1-1.6
			c-0.3-2.5-1.1-4.4-2.3-5.9c-1.2-1.6-2.9-2.2-5.4-2.2c-1.9,0-3.3,0.4-4.2,1.6c-1.1,1.1-1.6,2.5-1.6,4.4c0,3.1,1.3,5.6,3.9,7.7
			l9.7,7.7c5.2,4.1,7.7,9.2,7.7,15c0,4-1.2,7.1-3.7,9.4C383.6,97.4,380.3,98.6,376.2,98.6z"/>
		<path class="st2" d="M401.2,98.1V50.8h-9.7v-6.8h27.1v6.8h-9.7v47.3H401.2z"/>
		<path class="st2" d="M422.8,98.1V43.9h7.7v54.3C430.5,98.1,422.8,98.1,422.8,98.1z"/>
		<path class="st2" d="M435.4,98.1L447,43.8h7.7l11.6,54.3h-7.7l-2.8-13.5H446l-2.9,13.5H435.4z M447.1,78.7h7.7L451,55.5
			L447.1,78.7z"/>
		<path class="st2" d="M470.7,98.1V43.9h5.8L490,77.4V43.9h7.7v54.3h-5.4l-13.8-36v36C478.5,98.1,470.7,98.1,470.7,98.1z"/>
		<path class="st2" d="M505.2,82.3v-23c0-1.9,0.1-3.7,0.3-5.4c0.2-1.7,0.7-3.1,1.3-4.5c0.6-1.4,1.4-2.6,2.3-3.7
			c0.9-0.9,2.2-1.8,3.7-2.3c1.6-0.6,3.2-0.8,5.2-0.8c8.2,0,12.2,5.6,12.2,16.6v2.2h-4.4v-3.3c0-1.8-0.1-3.3-0.3-4.6
			c-0.2-1.3-0.7-2.6-1.3-3.7c-0.6-1.1-1.4-1.9-2.5-2.5c-1.1-0.6-2.2-0.8-3.8-0.8c-1.3,0-2.5,0.2-3.5,0.6c-0.9,0.3-1.8,0.9-2.3,1.7
			c-0.6,0.7-1.1,1.6-1.6,2.5c-0.3,1.1-0.6,2.1-0.8,3.2c-0.1,1.1-0.2,2.3-0.2,3.8v25.1c0,1.8,0.1,3.3,0.3,4.7
			c0.2,1.3,0.7,2.5,1.3,3.7c0.6,1.1,1.4,2,2.6,2.5c1.2,0.6,2.5,0.8,4.1,0.8c1.4,0,2.7-0.3,3.8-0.8c1.1-0.6,1.9-1.4,2.5-2.5
			c0.6-1.2,0.9-2.3,1.3-3.7c0.2-1.3,0.3-2.9,0.3-4.6v-3.8h4.4v2.5c0,1.9-0.1,3.7-0.3,5.4c-0.2,1.6-0.6,3.1-1.2,4.5
			c-0.6,1.4-1.3,2.7-2.2,3.7c-0.9,0.9-2.1,1.8-3.6,2.3c-1.4,0.6-3.1,0.8-5,0.8c-2,0-3.8-0.3-5.4-0.8c-1.6-0.6-2.7-1.4-3.7-2.3
			c-0.9-0.9-1.8-2.2-2.3-3.7c-0.6-1.4-1.1-2.9-1.2-4.5C505.3,85.9,505.2,84.2,505.2,82.3z"/>
		<path class="st2" d="M539,98h-4.6l10.3-54.7h6L561,98h-4.6l-2.6-14.2h-11.9L539,98z M542.2,80.6h10.9l-5.5-32.2L542.2,80.6z"/>
		<path class="st2" d="M566.7,98V43.4h13.8c1.8,0,3.3,0.2,4.6,0.7c1.3,0.4,2.3,1.2,3.2,2c0.8,0.8,1.4,1.9,2,3.1
			c0.4,1.2,0.8,2.5,1.1,3.8c0.2,1.3,0.2,2.8,0.2,4.4c0,7-2.3,11.4-7.3,13.3l8,27.2h-4.8l-7.4-26.7h-8.7v26.7h-4.6V98z M571.3,67.4
			h9.3c1.3,0,2.3-0.2,3.3-0.8c0.9-0.6,1.6-1.3,2-2.3c0.4-1.1,0.8-2.1,0.9-3.2c0.2-1.1,0.2-2.3,0.2-3.8c0-1.2,0-2.2-0.1-3.2
			c-0.1-0.9-0.3-1.9-0.6-2.7c-0.2-0.8-0.7-1.7-1.2-2.2c-0.4-0.6-1.1-1.1-1.9-1.4s-1.7-0.6-2.7-0.6h-9.3L571.3,67.4L571.3,67.4z"/>
		<path class="st2" d="M599,98V43.4h4.6v50.8h14.5v3.9H599V98z"/>
		<path class="st2" d="M621.4,82.3v-23c0-1.9,0.1-3.7,0.3-5.4c0.2-1.7,0.7-3.1,1.4-4.6c0.6-1.4,1.4-2.6,2.5-3.7
			c0.9-0.9,2.2-1.8,3.8-2.3c1.6-0.6,3.3-0.8,5.2-0.8c1.9,0,3.8,0.2,5.2,0.8c1.6,0.6,2.8,1.3,3.8,2.3c0.9,0.9,1.8,2.2,2.5,3.7
			c0.6,1.4,1.1,2.9,1.4,4.6c0.2,1.7,0.3,3.5,0.3,5.4v23c0,11.2-4.4,16.6-13.3,16.6C625.8,98.9,621.4,93.3,621.4,82.3z M643.3,83.3
			V58.1c0-7.8-2.8-11.7-8.6-11.7c-5.8,0-8.6,3.9-8.6,11.7v25.1c0,7.8,2.8,11.7,8.6,11.7C640.4,95,643.3,91.1,643.3,83.3z"/>
	</g>
</g>
</svg>
