<?xml version="1.0" encoding="utf-8"?>
<!-- Generator: Adobe Illustrator 24.1.0, SVG Export Plug-In . SVG Version: 6.00 Build 0)  -->
<svg version="1.1" id="Layer_1" xmlns="http://www.w3.org/2000/svg" xmlns:xlink="http://www.w3.org/1999/xlink" x="0px" y="0px"
	 viewBox="0 0 135 30" style="enable-background:new 0 0 135 30;" xml:space="preserve">
<style type="text/css">
	.st0{fill:#FFFFFF;}
</style>
<path class="st0" d="M0.3-21c-0.1-0.4-0.1-0.8,0-1.2c1.2-0.1,2-0.2,2.5-0.3c0.5-0.1,0.9-0.4,1-0.8C4-23.7,4-24.3,4-25.2v-17.7
	c0-1.1,0-1.8-0.1-2.3s-0.5-0.7-1-0.9s-1.4-0.3-2.6-0.4c-0.1-0.4-0.1-0.8,0-1.2c0.5,0,1.1,0,1.9,0s1.5,0,2.2,0s1.3,0,1.8,0s1,0,1.7,0
	s1.5,0,2.2,0c0.8,0,1.4,0,1.8,0c0.1,0.4,0.1,0.8,0,1.2c-1.2,0.1-2,0.2-2.5,0.3s-0.9,0.4-1,0.8c-0.1,0.4-0.2,1-0.2,1.9v7.5h13.7v-7
	c0-1.1-0.1-1.8-0.2-2.3s-0.4-0.7-1-0.9c-0.5-0.2-1.4-0.3-2.5-0.4c-0.1-0.4-0.1-0.8,0-1.2c0.5,0,1.1,0,1.8,0c0.7,0,1.5,0,2.2,0
	s1.3,0,1.8,0s1.1,0,1.8,0c0.7,0,1.4,0,2.1,0s1.4,0,1.9,0c0.1,0.4,0.1,0.8,0,1.2c-1.2,0.1-2.1,0.2-2.6,0.3s-0.9,0.4-1,0.8
	c-0.1,0.4-0.2,1-0.2,1.9v17.7c0,1,0.1,1.8,0.2,2.3s0.4,0.8,1,0.9c0.5,0.1,1.4,0.2,2.6,0.3c0.1,0.4,0.1,0.8,0,1.2c-0.5,0-1.2,0-1.9,0
	c-0.7,0-1.5,0-2.2,0s-1.3,0-1.8,0s-1,0-1.7,0s-1.4,0-2.1,0s-1.3,0-1.8,0c-0.1-0.4-0.1-0.8,0-1.2c1.2-0.1,2-0.2,2.5-0.3
	c0.5-0.1,0.8-0.4,1-0.8c0.1-0.4,0.2-1.1,0.2-1.9v-9H8.2v8.5c0,1.1,0.1,1.8,0.2,2.3s0.4,0.8,0.9,0.9s1.4,0.2,2.6,0.3
	c0.1,0.4,0.1,0.8,0,1.2c-0.5,0-1.1,0-1.9,0c-0.7,0-1.5,0-2.2,0s-1.3,0-1.8,0s-1.1,0-1.8,0s-1.4,0-2.2,0C1.4-21,0.8-21,0.3-21z"/>
<path class="st0" d="M37.3-20.5c-1.6,0-2.9-0.5-3.8-1.4c-0.9-1-1.3-2.4-1.3-4.3v-7.7c0-1-0.1-1.7-0.2-2.2c-0.1-0.5-0.3-0.8-0.7-1
	c-0.4-0.2-1-0.4-2-0.5c-0.1-0.3-0.1-0.6,0-1c1.1-0.2,2.1-0.3,3.1-0.5c1-0.2,2-0.4,3-0.6l0.6,0.3c0,0.8-0.1,1.5-0.1,2.2s0,1.3,0,1.9
	v7.7c0,1.5,0.2,2.7,0.7,3.4c0.5,0.7,1.4,1.1,2.8,1.1c0.8,0,1.5-0.2,2.1-0.5c0.7-0.4,1.3-0.9,1.9-1.5v-8.8c0-1-0.1-1.7-0.2-2.2
	c-0.1-0.5-0.3-0.8-0.7-1s-1-0.4-2-0.5c-0.1-0.3-0.1-0.6,0-1c1.1-0.2,2.1-0.3,3.1-0.5s2-0.4,3.1-0.6l0.6,0.3c0,0.8-0.1,1.5-0.1,2.2
	s0,1.3,0,1.9v9.8c0,0.8,0,1.3,0.1,1.7c0.1,0.4,0.4,0.7,0.8,0.8c0.4,0.2,1.1,0.3,2.1,0.4c0,0.3,0,0.6,0,0.9c-1.1,0.1-2.1,0.2-3.1,0.4
	c-1,0.2-2,0.3-2.9,0.6L43.6-21l-0.1-2.7C41.5-21.5,39.4-20.5,37.3-20.5z"/>
<path class="st0" d="M64.8-20.5l-0.6-0.3L64-23.4c-0.9,1-1.8,1.7-2.7,2.2s-1.9,0.7-3,0.7c-1.6,0-3-0.4-4.1-1.3
	c-1.2-0.9-2.1-2-2.7-3.3s-1-2.9-1-4.4c0-1.8,0.4-3.5,1.2-5.1c0.8-1.5,1.9-2.7,3.4-3.6c1.5-0.9,3.2-1.4,5.1-1.4
	c0.6,0,1.2,0.1,1.8,0.2c0.6,0.1,1.3,0.2,2,0.4v-5c0-0.8-0.1-1.4-0.2-1.7c-0.2-0.4-0.5-0.7-0.9-0.8c-0.4-0.2-1.1-0.3-2-0.4
	c-0.1-0.3-0.1-0.7,0-1c1-0.1,2.1-0.3,3.1-0.6c1.1-0.3,2.2-0.7,3.3-1.1l0.6,0.2c0,0.6-0.1,1.2-0.1,1.9s0,1.5,0,2.3v18.8
	c0,1,0,1.7,0.1,2.2s0.3,0.8,0.7,1c0.4,0.2,1,0.3,1.9,0.5c0.1,0.3,0.1,0.7,0,1c-1,0.2-2,0.3-3,0.5C66.6-21,65.7-20.8,64.8-20.5z
	 M64-35.9c-1.1-1.5-2.5-2.2-4.3-2.2c-1.7,0-3.1,0.6-4,1.9c-0.9,1.3-1.3,3-1.3,5.3c0,1.3,0.2,2.6,0.5,3.8c0.4,1.2,0.9,2.2,1.7,3
	s1.9,1.2,3.2,1.2c1.7,0,3.1-0.7,4.1-2.2L64-35.9L64-35.9z"/>
<path class="st0" d="M73.4-27c0.4,1.7,1,3,1.8,3.8c0.8,0.9,1.9,1.3,3.2,1.3c1,0,1.8-0.2,2.5-0.7s1-1.2,1-2.2c0-0.8-0.2-1.4-0.6-1.8
	c-0.4-0.5-0.9-0.8-1.5-1.1c-0.6-0.3-1.4-0.7-2.2-1c-0.9-0.4-1.8-0.8-2.7-1.2c-0.8-0.5-1.5-1-2-1.7c-0.5-0.7-0.8-1.6-0.8-2.6
	c0-1.2,0.3-2.2,0.9-3c0.7-0.8,1.5-1.4,2.5-1.8c1-0.4,2.1-0.6,3.3-0.6c0.6,0,1.2,0,1.7,0.1c0.6,0.1,0.9,0.1,1,0.1
	c0.5,0.1,1,0.1,1.4,0.2c0.4,0,0.7,0,0.7,0s0.1,0,0.2,0s0.2,0,0.4,0c0,0.8,0,1.6,0,2.5c0,0.8,0.1,1.7,0.2,2.7c0,0-0.1,0-0.2,0
	c-0.2,0-0.4,0.1-0.6,0.1s-0.4,0-0.5,0c-0.3-1.4-0.8-2.4-1.5-3.1c-0.6-0.7-1.5-1-2.7-1c-1,0-1.9,0.2-2.5,0.7s-0.9,1.1-0.9,1.9
	c0,0.7,0.2,1.2,0.6,1.6c0.4,0.4,0.9,0.7,1.5,1s1.1,0.5,1.7,0.7c1,0.4,1.9,0.8,2.8,1.3s1.6,1.1,2.2,1.8c0.6,0.7,0.9,1.7,0.9,3
	s-0.3,2.4-1,3.3c-0.7,0.8-1.5,1.5-2.5,1.9s-2.1,0.6-3.3,0.6c-0.7,0-1.3-0.1-2-0.2c-0.6-0.1-1-0.2-1-0.2c-0.1,0-0.3,0-0.6-0.1
	C74.4-21,74-21,73.6-21.1s-0.8-0.1-1.1-0.1c0-0.8,0-1.7-0.1-2.6c-0.1-1-0.1-2-0.2-3.2c0.1,0,0.1,0,0.2,0c0.2,0,0.4,0,0.6,0
	C73.1-27,73.2-27,73.4-27z"/>
<path class="st0" d="M96.3-20.5c-1.8,0-3.5-0.4-4.9-1.2C90-22.5,89-23.6,88.2-25s-1.1-3-1.1-4.9c0-2,0.4-3.7,1.2-5.2
	c0.8-1.5,1.9-2.6,3.4-3.4c1.4-0.8,3.1-1.2,5-1.2c1.8,0,3.5,0.4,4.8,1.2c1.4,0.8,2.4,1.9,3.2,3.3c0.8,1.4,1.1,3,1.1,4.8
	c0,1.8-0.4,3.5-1.2,5c-0.8,1.5-1.9,2.6-3.3,3.5C99.8-21,98.2-20.5,96.3-20.5z M91.3-30.3c0,2.6,0.4,4.6,1.3,6.2
	c0.9,1.5,2.1,2.2,3.8,2.2c1.6,0,2.9-0.7,3.7-2.1c0.9-1.4,1.3-3.4,1.3-5.8c0-2.6-0.4-4.6-1.3-6.1s-2.1-2.3-3.8-2.3
	c-1.6,0-2.9,0.7-3.8,2.1C91.8-34.8,91.3-32.8,91.3-30.3z"/>
<path class="st0" d="M117.9-21c-0.1-0.4-0.1-0.8,0-1.2c0.8-0.1,1.4-0.1,1.7-0.2c0.4-0.1,0.6-0.4,0.8-0.8c0.1-0.4,0.2-1,0.2-1.8v-7.7
	c0-1.5-0.2-2.6-0.7-3.4c-0.5-0.8-1.4-1.1-2.8-1.1c-0.7,0-1.4,0.1-2.1,0.4c-0.7,0.3-1.4,0.7-2.2,1.5v9.9c0,1,0.1,1.7,0.2,2.1
	s0.4,0.7,0.8,0.8c0.4,0.1,1,0.2,1.8,0.2c0.1,0.4,0.1,0.8,0,1.2c-0.7,0-1.5,0-2.2,0c-0.8,0-1.6,0-2.5,0c-0.8,0-1.6,0-2.4,0
	s-1.6,0-2.3,0c-0.1-0.4-0.1-0.8,0-1.2c0.9-0.1,1.5-0.1,1.9-0.2s0.7-0.4,0.8-0.8c0.1-0.4,0.2-1,0.2-1.8v-8.5c0-1-0.1-1.7-0.2-2.2
	s-0.3-0.8-0.7-1c-0.4-0.2-1-0.4-2-0.5c-0.1-0.4-0.1-0.7,0-1c2.2-0.4,4.2-1,6-1.7l0.6,0.2v2.8c1.2-1.1,2.3-1.8,3.4-2.2
	s2.2-0.6,3.2-0.6c1.7,0,3,0.5,3.8,1.5s1.3,2.4,1.3,4.3v8.6c0,1,0.1,1.7,0.2,2.1s0.4,0.7,0.8,0.8c0.4,0.1,1,0.2,1.8,0.2
	c0.1,0.4,0.1,0.8,0,1.2c-0.8,0-1.5,0-2.2,0s-1.5,0-2.5,0c-0.9,0-1.8,0-2.5,0C119.3-21,118.6-21,117.9-21z"/>
<path class="st0" d="M128.5-23.4c0-0.8,0.3-1.4,0.8-2s1.2-0.8,1.9-0.8c0.9,0,1.5,0.3,2.1,0.9c0.5,0.6,0.8,1.2,0.8,1.9
	c0,0.8-0.3,1.4-0.8,2s-1.2,0.8-2.1,0.8c-0.8,0-1.4-0.3-1.9-0.8C128.7-21.9,128.5-22.6,128.5-23.4z"/>
<g id="Layer_2_1_">
	<path class="st0" d="M49.3,7.1L37.8,0.3L25.1,7.7L12.5,0.3L0.9,6.9L0,7.7v1.5v13.2l12.6,7.3l12.6-7.3l12.6,7.3l12.6-7.3v-13V7.7
		L49.3,7.1z M14.7,15l10.4-6l10.4,6l-10.4,6L14.7,15z M11.5,26.5L2,21V10.2l9.5,5.3V26.5z M3.1,8.4l9.5-5.5l9.5,5.5l-9.5,5.5l0,0
		L3.1,8.4z M13.6,26.5v-9.7l8.2,4.9L13.6,26.5z M36.7,16.8v9.7l-8.2-4.8L36.7,16.8z M37.8,13.7L37.8,13.7l-9.5-5.5l9.5-5.5l9.5,5.5
		L37.8,13.7z M48.2,21l-9.5,5.3V15.5l9.5-5.3V21z"/>
</g>
<g>
	<path class="st0" d="M24.7,55.2c-0.6,0-1.2-0.1-1.7-0.2c-0.5-0.1-0.9-0.5-1.2-0.8S21.2,53.5,21,53c-0.2-0.5-0.3-1-0.4-1.6
		c-0.1-0.5-0.1-1.1-0.1-1.8v-4.4c0-0.7,0-1.3,0.1-1.8s0.2-1.1,0.4-1.6c0.2-0.5,0.5-0.9,0.8-1.2c0.3-0.3,0.7-0.6,1.2-0.7
		c0.5-0.2,1.1-0.2,1.7-0.2c0.7,0,1.3,0.1,1.8,0.3s0.9,0.5,1.2,0.9c0.3,0.4,0.5,0.9,0.7,1.4s0.2,1.1,0.2,1.9c0,0.1,0,0.2,0,0.5h-2.2
		v-0.5c0-0.3,0-0.6,0-0.8c0-0.2,0-0.5-0.1-0.7c0-0.2-0.1-0.5-0.2-0.6c-0.1-0.2-0.2-0.3-0.3-0.5c-0.1-0.1-0.3-0.2-0.5-0.2
		c-0.2-0.1-0.5-0.1-0.7-0.1c-0.4,0-0.7,0.1-0.9,0.2c-0.2,0.1-0.5,0.2-0.6,0.5c-0.1,0.2-0.2,0.5-0.3,0.7c-0.1,0.3-0.1,0.6-0.1,0.9
		s0,0.6,0,1.1v5.4c0,0.4,0,0.7,0,1s0.1,0.6,0.2,0.9c0.1,0.3,0.2,0.5,0.4,0.7c0.1,0.2,0.3,0.4,0.6,0.5c0.2,0.1,0.5,0.2,0.8,0.2
		s0.6-0.1,0.8-0.2c0.2-0.1,0.4-0.3,0.5-0.5s0.2-0.5,0.3-0.7c0.1-0.3,0.1-0.6,0.1-0.9s0-0.6,0-1v-0.6h2.2V50c0,0.8-0.1,1.5-0.2,2.1
		c-0.1,0.6-0.4,1.1-0.7,1.6s-0.7,0.8-1.3,1C26.1,55,25.4,55.2,24.7,55.2z"/>
	<path class="st0" d="M30.2,55V39.7h2.7c1.6,0,2.8,0.3,3.7,0.9c0.8,0.6,1.2,1.7,1.2,3.2c0,0.9-0.2,1.7-0.5,2.3
		c-0.3,0.6-0.8,1-1.4,1.3l2.4,7.6h-2.2l-2.2-7.1h-1.6V55H30.2L30.2,55L30.2,55z M32.4,46.3h0.5c0.9,0,1.6-0.2,2.1-0.6s0.7-1,0.7-1.9
		c0-0.9-0.2-1.5-0.7-1.9c-0.5-0.4-1.1-0.6-2.1-0.6h-0.5V46.3z"/>
	<path class="st0" d="M39.7,55V39.7h2.2V55H39.7z"/>
	<path class="st0" d="M48.2,55.2c-1.4,0-2.4-0.4-3.2-1.2c-0.7-0.8-1.1-1.9-1.2-3.3l2.2-0.5c0.1,2.2,0.8,3.3,2.2,3.3
		c1.1,0,1.6-0.5,1.6-1.6c0-0.3,0-0.6-0.1-0.9c-0.1-0.2-0.2-0.5-0.4-0.8c-0.2-0.3-0.3-0.4-0.5-0.6c-0.1-0.1-0.3-0.3-0.6-0.5l-2.8-2.2
		c-0.5-0.4-0.9-0.9-1.2-1.5c-0.3-0.6-0.5-1.3-0.5-2.1c0-1.1,0.3-2.1,1-2.7c0.7-0.7,1.6-1,2.8-1c1.2,0,2.2,0.3,3,0.9
		c0.8,0.6,1.1,1.5,1.3,2.6c0,0.1,0,0.3,0.1,0.5l-2.2,0.5c0-0.1,0-0.2,0-0.5c-0.1-0.7-0.3-1.2-0.7-1.7c-0.3-0.5-0.8-0.6-1.5-0.6
		c-0.5,0-0.9,0.1-1.2,0.5c-0.3,0.3-0.5,0.7-0.5,1.2c0,0.9,0.4,1.6,1.1,2.2l2.7,2.2c1.5,1.1,2.2,2.6,2.2,4.2c0,1.1-0.3,2-1,2.6
		C50.3,54.8,49.4,55.2,48.2,55.2z"/>
	<path class="st0" d="M55.3,55V41.7h-2.7v-1.9h7.6v1.9h-2.7V55H55.3z"/>
	<path class="st0" d="M61.3,55V39.7h2.2V55C63.5,55,61.3,55,61.3,55z"/>
	<path class="st0" d="M64.9,55l3.3-15.3h2.2L73.7,55h-2.2l-0.8-3.8h-2.8L67.1,55H64.9z M68.2,49.5h2.2L69.3,43L68.2,49.5z"/>
	<path class="st0" d="M74.8,55V39.7h1.6l3.8,9.4v-9.4h2.2V55h-1.5L77,44.9V55C77,55,74.8,55,74.8,55z"/>
	<path class="st0" d="M84.6,50.6v-6.5c0-0.5,0-1,0.1-1.5c0-0.5,0.1-0.9,0.3-1.3c0.2-0.4,0.4-0.7,0.7-1c0.2-0.2,0.6-0.5,1-0.7
		c0.5-0.2,0.9-0.2,1.5-0.2c2.3,0,3.4,1.6,3.4,4.7v0.6h-1.2v-0.9c0-0.5,0-0.9-0.1-1.3c-0.1-0.4-0.2-0.7-0.4-1
		c-0.2-0.3-0.4-0.5-0.7-0.7c-0.3-0.2-0.6-0.2-1.1-0.2c-0.4,0-0.7,0.1-1,0.2c-0.2,0.1-0.5,0.2-0.7,0.5c-0.2,0.2-0.3,0.5-0.5,0.7
		c-0.1,0.3-0.2,0.6-0.2,0.9s-0.1,0.7-0.1,1.1v7.1c0,0.5,0,0.9,0.1,1.3c0.1,0.4,0.2,0.7,0.4,1c0.2,0.3,0.4,0.6,0.7,0.7
		c0.3,0.2,0.7,0.2,1.1,0.2s0.8-0.1,1.1-0.2c0.3-0.2,0.5-0.4,0.7-0.7s0.2-0.7,0.4-1c0.1-0.4,0.1-0.8,0.1-1.3V50h1.2v0.7
		c0,0.5,0,1-0.1,1.5s-0.2,0.9-0.3,1.3c-0.2,0.4-0.4,0.8-0.6,1s-0.6,0.5-1,0.7s-0.9,0.2-1.4,0.2c-0.6,0-1.1-0.1-1.5-0.2
		c-0.5-0.2-0.8-0.4-1-0.7c-0.2-0.2-0.5-0.6-0.7-1c-0.2-0.4-0.3-0.8-0.3-1.3C84.6,51.6,84.6,51.1,84.6,50.6z"/>
	<path class="st0" d="M94.1,55h-1.3l2.9-15.4h1.7l2.9,15.4H99l-0.7-4H95L94.1,55z M95,50.1h3.1L96.5,41L95,50.1z"/>
	<path class="st0" d="M101.9,55V39.6h3.9c0.5,0,0.9,0.1,1.3,0.2c0.4,0.1,0.7,0.3,0.9,0.6c0.2,0.2,0.4,0.5,0.6,0.9
		c0.1,0.3,0.2,0.7,0.3,1.1c0.1,0.4,0.1,0.8,0.1,1.2c0,2-0.7,3.2-2.1,3.8l2.3,7.7h-1.5l-2.1-7.5h-2.4v7.5L101.9,55L101.9,55L101.9,55
		z M103.2,46.4h2.6c0.4,0,0.7-0.1,0.9-0.2c0.2-0.2,0.5-0.4,0.6-0.7c0.1-0.3,0.2-0.6,0.2-0.9c0.1-0.3,0.1-0.7,0.1-1.1
		c0-0.3,0-0.6,0-0.9c0-0.2-0.1-0.5-0.2-0.8c-0.1-0.2-0.2-0.5-0.3-0.6c-0.1-0.2-0.3-0.3-0.5-0.4c-0.2-0.1-0.5-0.2-0.8-0.2h-2.6
		L103.2,46.4L103.2,46.4z"/>
	<path class="st0" d="M111,55V39.6h1.3v14.3h4.1V55H111L111,55z"/>
	<path class="st0" d="M117.3,50.6v-6.5c0-0.5,0-1,0.1-1.5s0.2-0.9,0.4-1.3c0.2-0.4,0.4-0.7,0.7-1c0.2-0.2,0.6-0.5,1.1-0.7
		c0.5-0.2,0.9-0.2,1.5-0.2c0.5,0,1.1,0.1,1.5,0.2c0.5,0.2,0.8,0.4,1.1,0.7c0.2,0.2,0.5,0.6,0.7,1c0.2,0.4,0.3,0.8,0.4,1.3
		c0.1,0.5,0.1,1,0.1,1.5v6.5c0,3.2-1.2,4.7-3.8,4.7C118.5,55.2,117.3,53.7,117.3,50.6z M123.5,50.8v-7.1c0-2.2-0.8-3.3-2.4-3.3
		s-2.4,1.1-2.4,3.3v7.1c0,2.2,0.8,3.3,2.4,3.3C122.6,54.1,123.5,53,123.5,50.8z"/>
</g>
</svg>
